<?xml version="1.0" encoding="utf-8"?>
<!-- Generator: Adobe Illustrator 28.2.0, SVG Export Plug-In . SVG Version: 6.00 Build 0)  -->
<svg version="1.1" id="Layer_1" xmlns:serif="http://www.serif.com/"
	 xmlns="http://www.w3.org/2000/svg" xmlns:xlink="http://www.w3.org/1999/xlink" x="0px" y="0px" viewBox="0 0 1991.2 1998.4"
	 style="enable-background:new 0 0 1991.2 1998.4;" xml:space="preserve">
<style type="text/css">
	.st0{fill-rule:evenodd;clip-rule:evenodd;fill:#8FC94C;}
</style>
<path class="st0" d="M1557.8,873.6l-40.2,512.7l-244.2-123.2l-15,451.8l-272.3,176.4l-268.2-176.4l-17.4-451.8l-243.1,124.5
	l-40.5-514.1c262.5-116.4,372.3-154.8,570.6-220C1227.7,725.1,1352.7,785.7,1557.8,873.6z"/>
<path class="st0" d="M1130.3,288.6c0,5.7-9.3,35.6-92.7,44.2v72.9l0,0c-0.3,3-12.4,16.2-50.1,16.2c-38.1,0-50.7-13.2-50.9-16.2l0,0
	v-72.8c-82-8.2-91.5-35.8-91.5-44.2C845.1,277.6,988,0,988,0S1130.3,281.1,1130.3,288.6z"/>
<path class="st0" d="M393.5,1812.3l-91.3,57.2c21.6,39.8,34.9,73.9,27.8,83.1c-5,6.5-330,45.8-330,45.8s165.9-271.3,174.3-283.6
	c8.6-12.6,40.2,21.1,72.8,66.9l95.8-56.3c2.6-1.5,19.8,15.1,32.7,36.5C388.6,1783.4,397.3,1808.9,393.5,1812.3L393.5,1812.3z"/>
<path class="st0" d="M1732.8,1785.2c31.7-46.7,64.1-80.7,72.5-68.5c8.4,12.3,185.9,278.9,185.9,278.9s-312.8-29.7-330.6-34.1
	c-9.4-2.3,1.1-41.9,22.4-88.2l-99.3-59.9l0,0c-14.1-9.2,36.9-94.7,50.5-86.9L1732.8,1785.2z"/>
</svg>
